<svg width="31" height="30" viewBox="0 0 31 30" fill="none" xmlns="http://www.w3.org/2000/svg">
<path d="M21.6169 17.8049C21.1505 14.8771 18.6078 12.6319 15.5505 12.6319C12.4932 12.6319 9.95043 14.8771 9.48403 17.8049C7.06703 18.7988 5.48571 21.2756 5.68985 23.9658C5.91754 26.9636 8.35059 29.392 11.3489 29.6147C12.5071 29.701 13.6572 29.4627 14.6751 28.9258C15.2315 28.6327 15.8697 28.6325 16.4256 28.9259C17.3085 29.3907 18.2914 29.633 19.2891 29.632C19.4429 29.632 19.5974 29.6262 19.7516 29.6148C22.7502 29.3922 25.1832 26.9637 25.411 23.9659C25.6152 21.2756 24.0339 18.7988 21.6169 17.8049ZM22.562 23.7494C22.4405 25.3499 21.1415 26.6465 19.5402 26.7654C18.9176 26.8125 18.3013 26.685 17.7586 26.3985C17.0781 26.0393 16.3201 25.8516 15.5506 25.8516C14.781 25.8516 14.0231 26.0393 13.3425 26.3985C12.7998 26.6848 12.1848 26.8122 11.5608 26.7654C9.95969 26.6466 8.66055 25.35 8.53914 23.7494C8.41434 22.1061 9.52961 20.6123 11.1331 20.2745C11.4588 20.2059 11.7503 20.0258 11.9573 19.7652C12.1643 19.5046 12.2739 19.1799 12.2671 18.8472L12.2648 18.7749C12.2648 16.9631 13.7386 15.4892 15.5505 15.4892C17.3623 15.4892 18.8362 16.9631 18.8362 18.7697L18.8339 18.8472C18.827 19.18 18.9366 19.5047 19.1436 19.7653C19.3507 20.0259 19.6422 20.206 19.968 20.2745C21.5717 20.6123 22.6868 22.1061 22.562 23.7494Z" fill="#F1CDB3"/>
<path d="M15.5506 9.77496C18.1108 9.77496 20.1934 7.69231 20.1934 5.13211C20.1934 2.57192 18.1108 0.489258 15.5506 0.489258C12.9904 0.489258 10.9077 2.57203 10.9077 5.13211C10.9077 7.69219 12.9906 9.77496 15.5506 9.77496ZM15.5506 3.34641C16.5353 3.34641 17.3363 4.14738 17.3363 5.13211C17.3363 6.11684 16.5353 6.91781 15.5506 6.91781C14.5659 6.91781 13.7649 6.11684 13.7649 5.13211C13.7649 4.14738 14.566 3.34641 15.5506 3.34641Z" fill="#F1CDB3"/>
<path d="M10.1935 10.656C10.1935 8.0958 8.11069 6.01315 5.55061 6.01315C2.99054 6.01315 0.907761 8.09592 0.907761 10.656C0.907761 13.2161 2.99042 15.2988 5.55061 15.2988C8.11081 15.2988 10.1935 13.2161 10.1935 10.656ZM5.55061 12.4417C4.56589 12.4417 3.76491 11.6407 3.76491 10.656C3.76491 9.67127 4.56589 8.8703 5.55061 8.8703C6.53534 8.8703 7.33632 9.67127 7.33632 10.656C7.33632 11.6407 6.53522 12.4417 5.55061 12.4417Z" fill="#F1CDB3"/>
<path d="M25.5505 6.01302C22.9904 6.01302 20.9077 8.0958 20.9077 10.6559C20.9077 13.216 22.9906 15.2987 25.5505 15.2987C28.1107 15.2987 30.1934 13.2161 30.1934 10.6559C30.1934 8.09568 28.1107 6.01302 25.5505 6.01302ZM25.5505 12.4417C24.5658 12.4417 23.7648 11.6407 23.7648 10.656C23.7648 9.67126 24.5659 8.87029 25.5505 8.87029C26.5353 8.87029 27.3362 9.67126 27.3362 10.656C27.3362 11.6407 26.5353 12.4417 25.5505 12.4417Z" fill="#F1CDB3"/>
</svg>
